<?xml version="1.0" encoding="UTF-8" standalone="no"?>
<!-- Creator: CorelDRAW X5 -->

<svg
   style="fill-rule:evenodd;text-rendering:geometricPrecision;image-rendering:optimizeQuality;clip-rule:evenodd;shape-rendering:geometricPrecision"
   xml:space="preserve"
   viewBox="0 0 9687 15065"
   version="1.1"
   id="svg1"
   sodipodi:docname="laurel-single.svg"
   inkscape:version="1.4 (e7c3feb1, 2024-10-09)"
   xmlns:inkscape="http://www.inkscape.org/namespaces/inkscape"
   xmlns:sodipodi="http://sodipodi.sourceforge.net/DTD/sodipodi-0.dtd"
   xmlns="http://www.w3.org/2000/svg"
   xmlns:svg="http://www.w3.org/2000/svg"
   xmlns:rdf="http://www.w3.org/1999/02/22-rdf-syntax-ns#"
   xmlns:cc="http://creativecommons.org/ns#"
   xmlns:dc="http://purl.org/dc/elements/1.1/"><sodipodi:namedview
   id="namedview1"
   pagecolor="#ffffff"
   bordercolor="#cccccc"
   borderopacity="1"
   inkscape:showpageshadow="0"
   inkscape:pageopacity="1"
   inkscape:pagecheckerboard="0"
   inkscape:deskcolor="#d1d1d1"
   inkscape:zoom="0.0367076"
   inkscape:cx="9262.387"
   inkscape:cy="7369.0461"
   inkscape:window-width="1376"
   inkscape:window-height="768"
   inkscape:window-x="1920"
   inkscape:window-y="0"
   inkscape:window-maximized="0"
   inkscape:current-layer="svg1" />
 <defs
   id="defs1">
  <style
   type="text/css"
   id="style1">
    .str0 {stroke:#2B2A29;stroke-width:7.62}
    .fil0 {fill:black}
  </style>
 </defs>
 <g
   id="Layer_x0020_1"
   transform="matrix(0.16773283,0,0,0.20774715,2422.8573,5972.1278)">
  <path
   class="fil0 str0"
   d="m 5290,48 c 125,138 -115,557 -535,936 -316,286 -693,414 -877,440 -263,204 -501,420 -716,647 l -23,27 c 154,-85 549,-208 989,-154 561,68 998,273 976,458 -22,185 -496,279 -1057,211 -522,-63 -923,-353 -971,-441 l -258,298 c -45,57 -88,114 -130,171 l -117,166 c -116,172 -222,347 -317,527 127,-121 478,-341 917,-403 560,-78 1035,8 1061,192 26,184 -408,397 -968,475 -525,73 -990,-107 -1053,-179 -215,423 -372,866 -477,1319 103,-155 380,-439 771,-603 522,-218 1003,-256 1075,-84 72,172 -293,487 -815,705 -475,198 -957,151 -1057,99 -82,394 -125,795 -132,1199 0,480 48,960 134,1429 l 79,288 c 8,-178 106,-576 375,-922 346,-447 747,-717 894,-603 147,114 -15,569 -361,1016 -326,420 -786,616 -880,607 l 237,862 c 241,659 554,1285 953,1859 -60,-132 -133,-578 9,-1039 167,-540 447,-934 624,-879 178,55 186,538 19,1078 -167,540 -567,897 -624,879 -1,0 -2,-1 -2,-1 71,100 144,199 220,296 l 643,697 c -73,-193 -145,-521 -100,-877 70,-561 277,-997 462,-974 184,23 277,497 206,1058 -61,482 -313,860 -421,952 l 82,89 922,758 c -109,-174 -247,-490 -269,-859 -34,-564 89,-1031 275,-1042 186,-11 363,438 397,1002 29,484 -150,901 -239,1013 358,233 732,422 1126,578 -138,-156 -313,-421 -402,-749 -147,-546 -121,-1028 58,-1076 180,-48 444,355 592,901 118,438 46,855 -16,1012 70,25 141,49 213,73 l 985,230 c -167,-123 -384,-336 -538,-623 -266,-499 -350,-974 -186,-1062 164,-88 513,246 779,745 219,409 239,843 210,1001 l 773,148 c 254,73 509,205 692,399 l 172,228 c 35,75 3,164 -72,200 -75,35 -164,3 -200,-72 -63,-130 -129,-244 -255,-327 -354,-232 -757,-309 -1163,-380 -51,149 -284,519 -681,768 -479,301 -947,417 -1046,259 -99,-157 209,-529 688,-829 239,-150 493,-228 690,-261 -95,-19 -190,-40 -283,-65 -293,-79 -580,-171 -861,-278 -35,102 -364,463 -855,632 -534,185 -1017,192 -1078,17 -61,-176 323,-468 858,-653 322,-112 641,-115 847,-88 -398,-168 -781,-371 -1142,-614 -63,96 -455,376 -963,443 -561,73 -1035,-17 -1059,-202 -24,-184 411,-393 972,-466 351,-46 674,21 869,93 l -897,-761 c -33,-32 -67,-65 -100,-97 -48,75 -501,298 -1037,269 -565,-31 -1014,-207 -1004,-393 10,-186 476,-311 1041,-280 372,21 691,158 865,267 -312,-321 -605,-666 -861,-1033 -109,69 -563,184 -1049,70 -551,-129 -963,-380 -920,-561 42,-181 523,-223 1074,-94 323,76 588,235 749,366 -1,-1 -1,-2 -2,-3 L 2215,9338 c -53,54 -567,117 -1070,-99 -520,-223 -882,-542 -809,-713 73,-171 554,-129 1074,94 390,167 663,454 765,610 L 1775,8124 c -21,-78 -40,-157 -58,-236 -73,41 -582,5 -1031,-296 -470,-314 -767,-695 -664,-849 103,-155 568,-25 1038,290 328,219 538,522 623,701 -94,-454 -145,-918 -154,-1382 -1,5 -3,9 -5,11 -43,42 -562,-91 -958,-494 -396,-403 -610,-836 -478,-966 133,-130 562,91 958,494 315,320 458,715 482,885 -5,-476 33,-953 115,-1420 130,-743 447,-1466 899,-2070 l 43,-49 c 152,-226 322,-460 469,-626 148,-167 307,-307 438,-421 l 8,-9 268,-259 c -40,-46 115,-557 535,-936 420,-379 861,-574 986,-436 z m -2164,2 c 186,9 313,475 284,1040 -29,565 -328,1009 -388,1006 -60,-3 -313,-475 -284,-1040 C 2767,491 2941,41 3126,50 Z M 1717,1357 c 182,-38 424,379 541,932 117,553 -59,1059 -118,1071 -59,12 -424,-379 -541,-932 -117,-553 -64,-1033 118,-1071 z M 699,2983 c 166,-83 507,259 760,764 254,505 212,1039 159,1066 -54,27 -507,-259 -760,-764 C 604,3544 533,3066 699,2983 Z m 2461,2047 c 121,141 -130,554 -560,921 -430,367 -958,455 -997,409 -39,-46 130,-554 560,-921 430,-367 876,-550 997,-409 z m 68,2450 c 165,85 90,562 -169,1065 -258,503 -714,784 -767,757 -53,-27 -90,-562 169,-1065 258,-503 602,-842 767,-757 z"
   id="path1" />
 </g><g
   id="Layer_x0020_1-3"
   transform="matrix(-0.16773283,0,0,0.20774715,7078.2041,5925.1799)"
   style="clip-rule:evenodd;fill-rule:evenodd;image-rendering:optimizeQuality;shape-rendering:geometricPrecision;text-rendering:geometricPrecision">
  <path
   class="fil0 str0"
   d="m 5290,48 c 125,138 -115,557 -535,936 -316,286 -693,414 -877,440 -263,204 -501,420 -716,647 l -23,27 c 154,-85 549,-208 989,-154 561,68 998,273 976,458 -22,185 -496,279 -1057,211 -522,-63 -923,-353 -971,-441 l -258,298 c -45,57 -88,114 -130,171 l -117,166 c -116,172 -222,347 -317,527 127,-121 478,-341 917,-403 560,-78 1035,8 1061,192 26,184 -408,397 -968,475 -525,73 -990,-107 -1053,-179 -215,423 -372,866 -477,1319 103,-155 380,-439 771,-603 522,-218 1003,-256 1075,-84 72,172 -293,487 -815,705 -475,198 -957,151 -1057,99 -82,394 -125,795 -132,1199 0,480 48,960 134,1429 l 79,288 c 8,-178 106,-576 375,-922 346,-447 747,-717 894,-603 147,114 -15,569 -361,1016 -326,420 -786,616 -880,607 l 237,862 c 241,659 554,1285 953,1859 -60,-132 -133,-578 9,-1039 167,-540 447,-934 624,-879 178,55 186,538 19,1078 -167,540 -567,897 -624,879 -1,0 -2,-1 -2,-1 71,100 144,199 220,296 l 643,697 c -73,-193 -145,-521 -100,-877 70,-561 277,-997 462,-974 184,23 277,497 206,1058 -61,482 -313,860 -421,952 l 82,89 922,758 c -109,-174 -247,-490 -269,-859 -34,-564 89,-1031 275,-1042 186,-11 363,438 397,1002 29,484 -150,901 -239,1013 358,233 732,422 1126,578 -138,-156 -313,-421 -402,-749 -147,-546 -121,-1028 58,-1076 180,-48 444,355 592,901 118,438 46,855 -16,1012 70,25 141,49 213,73 l 985,230 c -167,-123 -384,-336 -538,-623 -266,-499 -350,-974 -186,-1062 164,-88 513,246 779,745 219,409 239,843 210,1001 l 773,148 c 254,73 509,205 692,399 l 172,228 c 35,75 3,164 -72,200 -75,35 -164,3 -200,-72 -63,-130 -129,-244 -255,-327 -354,-232 -757,-309 -1163,-380 -51,149 -284,519 -681,768 -479,301 -947,417 -1046,259 -99,-157 209,-529 688,-829 239,-150 493,-228 690,-261 -95,-19 -190,-40 -283,-65 -293,-79 -580,-171 -861,-278 -35,102 -364,463 -855,632 -534,185 -1017,192 -1078,17 -61,-176 323,-468 858,-653 322,-112 641,-115 847,-88 -398,-168 -781,-371 -1142,-614 -63,96 -455,376 -963,443 -561,73 -1035,-17 -1059,-202 -24,-184 411,-393 972,-466 351,-46 674,21 869,93 l -897,-761 c -33,-32 -67,-65 -100,-97 -48,75 -501,298 -1037,269 -565,-31 -1014,-207 -1004,-393 10,-186 476,-311 1041,-280 372,21 691,158 865,267 -312,-321 -605,-666 -861,-1033 -109,69 -563,184 -1049,70 -551,-129 -963,-380 -920,-561 42,-181 523,-223 1074,-94 323,76 588,235 749,366 -1,-1 -1,-2 -2,-3 L 2215,9338 c -53,54 -567,117 -1070,-99 -520,-223 -882,-542 -809,-713 73,-171 554,-129 1074,94 390,167 663,454 765,610 L 1775,8124 c -21,-78 -40,-157 -58,-236 -73,41 -582,5 -1031,-296 -470,-314 -767,-695 -664,-849 103,-155 568,-25 1038,290 328,219 538,522 623,701 -94,-454 -145,-918 -154,-1382 -1,5 -3,9 -5,11 -43,42 -562,-91 -958,-494 -396,-403 -610,-836 -478,-966 133,-130 562,91 958,494 315,320 458,715 482,885 -5,-476 33,-953 115,-1420 130,-743 447,-1466 899,-2070 l 43,-49 c 152,-226 322,-460 469,-626 148,-167 307,-307 438,-421 l 8,-9 268,-259 c -40,-46 115,-557 535,-936 420,-379 861,-574 986,-436 z m -2164,2 c 186,9 313,475 284,1040 -29,565 -328,1009 -388,1006 -60,-3 -313,-475 -284,-1040 C 2767,491 2941,41 3126,50 Z M 1717,1357 c 182,-38 424,379 541,932 117,553 -59,1059 -118,1071 -59,12 -424,-379 -541,-932 -117,-553 -64,-1033 118,-1071 z M 699,2983 c 166,-83 507,259 760,764 254,505 212,1039 159,1066 -54,27 -507,-259 -760,-764 C 604,3544 533,3066 699,2983 Z m 2461,2047 c 121,141 -130,554 -560,921 -430,367 -958,455 -997,409 -39,-46 130,-554 560,-921 430,-367 876,-550 997,-409 z m 68,2450 c 165,85 90,562 -169,1065 -258,503 -714,784 -767,757 -53,-27 -90,-562 169,-1065 258,-503 602,-842 767,-757 z"
   id="path1-9"
   style="fill:#000000;stroke:#2b2a29;stroke-width:7.62" />
 </g>
<metadata
   id="metadata1"><rdf:RDF><cc:Work><dc:format>image/svg+xml</dc:format><dc:type
         rdf:resource="http://purl.org/dc/dcmitype/StillImage" /><cc:license
         rdf:resource="http://creativecommons.org/licenses/publicdomain/" /><dc:publisher><cc:Agent
           rdf:about="http://openclipart.org/"><dc:title>Openclipart</dc:title></cc:Agent></dc:publisher></cc:Work><cc:License
       rdf:about="http://creativecommons.org/licenses/publicdomain/"><cc:permits
         rdf:resource="http://creativecommons.org/ns#Reproduction" /><cc:permits
         rdf:resource="http://creativecommons.org/ns#Distribution" /><cc:permits
         rdf:resource="http://creativecommons.org/ns#DerivativeWorks" /></cc:License></rdf:RDF></metadata></svg>
