<?xml version="1.0" encoding="UTF-8" standalone="no"?>
<svg
   width="1920px"
   height="39px"
   version="1.1"
   id="svg1"
   sodipodi:docname="razor-bottom-black-4930e500.svg"
   inkscape:version="1.4 (e7c3feb1, 2024-10-09)"
   xmlns:inkscape="http://www.inkscape.org/namespaces/inkscape"
   xmlns:sodipodi="http://sodipodi.sourceforge.net/DTD/sodipodi-0.dtd"
   xmlns="http://www.w3.org/2000/svg"
   xmlns:svg="http://www.w3.org/2000/svg">
  <defs
     id="defs1" />
  <sodipodi:namedview
     id="namedview1"
     pagecolor="#ffffff"
     bordercolor="#cccccc"
     borderopacity="1"
     inkscape:showpageshadow="0"
     inkscape:pageopacity="1"
     inkscape:pagecheckerboard="0"
     inkscape:deskcolor="#d1d1d1"
     inkscape:zoom="0.54427083"
     inkscape:cx="960.91866"
     inkscape:cy="19.291866"
     inkscape:window-width="1376"
     inkscape:window-height="768"
     inkscape:window-x="1920"
     inkscape:window-y="0"
     inkscape:window-maximized="0"
     inkscape:current-layer="svg1" />
  <path
     fill-rule="evenodd"
     fill="#000000"
     d="m 42.24,15.193 3.298,3.287 -5.508,5.477 h 11.004 l -5.496,-5.477 3.305,-3.287 h 81.714 l 4.693,-4.693 9.247,-9.22 6.165,6.145 31.248,-0.136 h 5.009 l 12.658,12.616 h 33.632 l 7.238,-7.214 293.262,0.038 5.77,5.747 8.649,-8.624 2.891,2.877 165.161,-0.038 12.761,-12.703 24.051,23.969 0.007,-0.011 0.011,0.011 9.053,-9.022 h 3.842 l 2.1,2.093 -3.336,3.313 h 6.656 l -3.32,-3.313 2.061,-2.051 77.933,-0.033 v -0.009 l 11,0.005 11,-0.005 v 0.009 l 77.933,0.033 2.062,2.051 -3.321,3.313 h 6.656 l -3.335,-3.313 2.099,-2.093 h 3.842 l 9.052,9.022 0.012,-0.011 0.007,0.011 24.051,-23.969 12.761,12.703 100.161,0.038 2.891,-2.877 8.649,8.624 5.77,-5.747 139.262,-0.038 7.239,7.214 h 33.631 L 1312.08,7.289 h 5.009 l 31.247,0.136 6.166,-6.145 9.246,9.22 4.694,4.693 h 81.713 l 3.305,3.287 -5.496,5.477 h 11.004 l -5.508,-5.477 3.298,-3.287 h 258.603 l 9.171,8.764 0.018,-0.022 0.023,0.022 15.968,-16.668 h 12.921 l 7.653,7.646 h 158.883 V 38.996 H 10e-4 V 14.935 Z m 1649.135,8.764 h 1.735 v -5.178 h -1.735 z m -2.624,0 h 1.73 v -5.178 h -1.73 z m -12.122,0 h 1.73 v -5.178 h -1.73 z m -20.798,0 h 5.195 v -5.178 h -5.195 z m -320.507,-9.962 h 1.734 V 12.27 h -1.734 z m -6.641,3.453 h 1.734 V 12.27 h -1.734 z m -13.435,0 h 1.734 v -1.724 h -1.734 z m 0,-3.453 h 1.734 V 12.27 h -1.734 z M 182.016,17.448 h 1.734 v -1.724 h -1.734 z m 0,-3.453 h 1.734 V 12.27 h -1.734 z m -13.435,3.453 h 1.735 V 12.27 h -1.735 z m -6.641,-3.453 h 1.735 V 12.27 H 161.94 Z M 42.214,15.166 h 6.656 l -0.027,0.027 H 42.24 Z m 510.007,-9.393 -4.093,4.079 -4.104,-4.079 z m 897.907,9.393 h 6.657 l -0.027,0.027 h -6.603 z"
     id="path1" />
</svg>
